<svg xmlns="http://www.w3.org/2000/svg" xml:space="preserve" width="96" height="96" viewBox="0 0 96 96">
  <path id="icon-bg" fill="context-fill" d="M 79.949513 218.13759 C 82.053793 218.13759 83.759523 219.82563 83.759523 221.90789999999998 L 83.759523 234.47561 C 83.759523 236.55795999999998 82.053793 238.24591999999998 79.949513 238.24591999999998 L 62.169532 238.24591999999998 C 60.06531 238.24591999999998 58.35952399999999 236.55795999999998 58.35952399999999 234.47561 L 58.35952399999999 221.9079 C 58.35952399999999 219.82563000000002 60.06531 218.13759000000002 62.16953199999999 218.13759000000002 z M 81.219523 225.20666 L 72.32963199999999 225.20666 C 71.628334 225.20666 70.86175899999999 224.67917 70.61766899999999 224.02848 L 69.35045299999999 220.65114 L 62.16953199999999 220.65114 C 61.46811799999999 220.65114 60.89952299999999 221.21381 60.89952299999999 221.9079 L 60.89952299999999 234.47561000000002 C 60.89952299999999 235.16972 61.46811799999999 235.73238 62.16953199999999 235.73238 L 79.949513 235.73238 C 80.650933 235.73238 81.219523 235.16972 81.219523 234.47561000000002 z" transform="matrix(3.78 0 0 3.78 -220.6068 -824.5582)"/>
  <g id="icon-status" transform="translate(66 66)">
    <path d="M 0.37797642 152.70238 C 0.37797641999999987 154.8075358915666 -0.45829350314592743 156.82647007823311 -1.9468635114028472 158.3150400827393 C -3.435433519659767 159.8036100872455 -5.454367708433402 160.63988000530435 -7.559523600000002 160.63988 C -9.664679557405787 160.6398801060866 -11.683613843802696 159.80361023251922 -13.172183934246865 158.31504021708957 C -14.660754024691034 156.82647020165996 -15.497024000000001 154.8075359574058 -15.497024 152.70238 C -15.497024000000003 150.5972240425942 -14.660754024691038 148.57828979834005 -13.172183934246869 147.08971978291044 C -11.6836138438027 145.60114976748082 -9.664679557405796 144.76487989391342 -7.559523600000008 144.76488 C -5.454367708433399 144.76487999469566 -3.435433519659764 145.60114991275452 -1.946863511402845 147.0897199172607 C -0.4582935031459261 148.5782899217669 0.3779764200000022 150.5972241084334 0.3779764200000004 152.70238 z" transform="matrix(3.78 0 0 3.78 28.5768 -577.206)"/>
    <path fill="#fff" d="M -0.01889849 152.70238 C -0.01890130665088543 156.86695025915253 -3.3949533408465355 160.24300000552378 -7.5595235999999995 160.243 C -11.724093972405491 160.2430001656863 -15.10014618334904 156.86695037240455 -15.100148999999998 152.70238 C -15.100150299561383 150.70248097882487 -14.305694397169663 148.78449217464504 -12.891552668941864 147.3703495837498 C -11.477410940714066 145.95620699285456 -9.559422621175566 145.1617499204346 -7.559523600000005 145.16175 C -5.559624629070134 145.1617499973474 -3.6416363840336263 145.9562071037214 -2.2274947185276854 147.37034968628032 C -0.8133530530217445 148.78449226883924 -0.018897190438648792 150.70248102907055 -0.018898489999999768 152.70238 z" transform="matrix(3.78 0 0 3.78 28.5768 -577.206)"/>
    <path fill="#fc0" d="M -1.6063986 152.70238 C -1.6064013614221024 155.99019819871484 -4.271705401284023 158.65550000000118 -7.5595236 158.65550000000002 C -10.847341954925668 158.65550022091494 -13.512646238577773 155.99019835492453 -13.512649 152.70238 C -13.512650326083234 151.12351214831463 -12.885448416288556 149.60931016545223 -11.769020683097807 148.492881569594 C -10.652592949907058 147.3764529737358 -9.138391451685937 146.7492498939128 -7.559523600000003 146.74925000000002 C -5.9806558176184765 146.74924999999945 -4.466454422158737 147.37645312665558 -3.3500267754808988 148.49288171101543 C -2.2335991288030614 149.60931029537528 -1.6063972739168255 151.12351221761904 -1.6063985999999995 152.70238 z" transform="matrix(3.78 0 0 3.78 28.5768 -577.206)"/>
  </g>
</svg>