<svg xmlns="http://www.w3.org/2000/svg" xml:space="preserve" width="96" height="96" viewBox="0 0 96 96">
  <path id="icon-bg" fill="context-fill" d="M 79.949513 218.13759 C 82.053793 218.13759 83.759523 219.82563 83.759523 221.90789999999998 L 83.759523 234.47561 C 83.759523 236.55795999999998 82.053793 238.24591999999998 79.949513 238.24591999999998 L 62.169532 238.24591999999998 C 60.06531 238.24591999999998 58.35952399999999 236.55795999999998 58.35952399999999 234.47561 L 58.35952399999999 221.9079 C 58.35952399999999 219.82563000000002 60.06531 218.13759000000002 62.16953199999999 218.13759000000002 z M 81.219523 225.20666 L 72.32963199999999 225.20666 C 71.628334 225.20666 70.86175899999999 224.67917 70.61766899999999 224.02848 L 69.35045299999999 220.65114 L 62.16953199999999 220.65114 C 61.46811799999999 220.65114 60.89952299999999 221.21381 60.89952299999999 221.9079 L 60.89952299999999 234.47561000000002 C 60.89952299999999 235.16972 61.46811799999999 235.73238 62.16953199999999 235.73238 L 79.949513 235.73238 C 80.650933 235.73238 81.219523 235.16972 81.219523 234.47561000000002 z" transform="matrix(3.78 0 0 3.78 -220.6068 -824.5582)"/>
  <g id="icon-status" transform="translate(66 66)">
    <path d="M -39.952179 123.73118 C -39.952179 128.1149402017819 -43.505918798218076 131.66868 -47.889679 131.66868 C -52.273439201781926 131.66868 -55.827179 128.1149402017819 -55.827179 123.73118 C -55.827179 119.34741979821807 -52.273439201781926 115.79368 -47.889679 115.79368 C -43.505918798218076 115.79368 -39.952179 119.34741979821807 -39.952179 123.73118 z" transform="matrix(3.78 0 0 3.78 181.0242 -467.6994)"/>
    <path fill="#37c871" d="M -40.349054 123.73118 C -40.34905681665086 127.89575021619484 -43.7251087838042 131.27179994477248 -47.889679 131.27179999999998 C -52.05424921619581 131.27179994477248 -55.43030118334915 127.89575021619483 -55.430304 123.73117999999998 C -55.43030529956134 121.73128104812925 -54.63584945207807 119.81329230456805 -53.22170781036318 118.39914972517117 C -51.807566168648286 116.98500714577429 -49.88957795187115 116.19055002652121 -47.889679 116.19054999999997 C -45.88978004812885 116.19055002652121 -43.971791831351716 116.98500714577429 -42.557650189636824 118.39914972517117 C -41.14350854792194 119.81329230456804 -40.34905270043866 121.73128104812923 -40.349054 123.73117999999997 z" transform="matrix(3.78 0 0 3.78 181.0242 -467.6994)"/>
    <path fill="#1a1a1a" d="M 30 10 C 24.88152 10 19.762666 11.952149 15.857422 15.857422 C 8.046911 23.667891 8.046911 36.332071 15.857422 44.142578 C 23.66791 51.952858 36.332063 51.952858 44.142578 44.142578 C 51.95284 36.332071 51.95284 23.667891 44.142578 15.857422 C 40.237321 11.952149 35.11848 10 30 10 z M 30 15 C 32.946842 15 35.890558 15.869759 38.425781 17.595703 L 17.597656 38.425781 C 13.622627 32.587852 14.214982 24.570147 19.392578 19.392578 C 22.321508 16.463633 26.161169 15 30 15 z M 42.242188 21.355469 C 46.385906 27.210657 45.851042 35.364009 40.607422 40.607422 C 35.364405 45.850656 27.212527 46.384917 21.357422 42.242188 L 42.242188 21.355469 z" transform="translate(-30 -30)"/>
  </g>
</svg>