<svg xmlns="http://www.w3.org/2000/svg" xml:space="preserve" width="96" height="96" viewBox="0 0 96 96">
  <path id="icon-bg" fill="context-fill" d="M 79.949513 218.13759 C 82.053793 218.13759 83.759523 219.82563 83.759523 221.90789999999998 L 83.759523 234.47561 C 83.759523 236.55795999999998 82.053793 238.24591999999998 79.949513 238.24591999999998 L 62.169532 238.24591999999998 C 60.06531 238.24591999999998 58.35952399999999 236.55795999999998 58.35952399999999 234.47561 L 58.35952399999999 221.9079 C 58.35952399999999 219.82563000000002 60.06531 218.13759000000002 62.16953199999999 218.13759000000002 z M 81.219523 225.20666 L 72.32963199999999 225.20666 C 71.628334 225.20666 70.86175899999999 224.67917 70.61766899999999 224.02848 L 69.35045299999999 220.65114 L 62.16953199999999 220.65114 C 61.46811799999999 220.65114 60.89952299999999 221.21381 60.89952299999999 221.9079 L 60.89952299999999 234.47561000000002 C 60.89952299999999 235.16972 61.46811799999999 235.73238 62.16953199999999 235.73238 L 79.949513 235.73238 C 80.650933 235.73238 81.219523 235.16972 81.219523 234.47561000000002 z" transform="matrix(3.78 0 0 3.78 -220.6068 -824.5582)"/>
  <g id="icon-status" transform="translate(66 66)">
    <path d="M -39.498226 123.91785 C -39.49822600000001 128.30161020178193 -43.051965798218085 131.85535 -47.435726 131.85535 C -51.81948620178193 131.85535 -55.373226 128.3016102017819 -55.373226 123.91784999999999 C -55.373226 119.53408979821806 -51.81948620178193 115.98034999999999 -47.435726 115.98034999999999 C -43.05196579821808 115.98034999999999 -39.498226 119.53408979821806 -39.498226 123.91784999999999 z" transform="matrix(3.78 0 0 3.78 179.3232 -468.4176)"/>
    <path fill="#fff" d="M -39.895101 123.91785 C -39.895103816650845 128.08242021619486 -43.27115578380419 131.4584699447725 -47.435725999999995 131.45847 C -51.6002962161958 131.4584699447725 -54.976348183349145 128.08242021619486 -54.976350999999994 123.91785 C -54.976352299561334 121.91795104812927 -54.181896452078064 119.99996230456807 -52.76775481036317 118.58581972517119 C -51.35361316864828 117.17167714577431 -49.43562495187115 116.37722002652123 -47.435725999999995 116.37722 C -45.43582704812884 116.37722002652123 -43.51783883135171 117.17167714577431 -42.10369718963682 118.58581972517119 C -40.68955554792193 119.99996230456806 -39.89509970043866 121.91795104812925 -39.895101 123.91784999999999 z" transform="matrix(3.78 0 0 3.78 179.3232 -468.4176)"/>
    <path fill="#37c871" d="M -41.482601 123.91785 C -41.48260376142211 127.20566819871482 -44.14790780128403 129.87097000000117 -47.435726 129.87097 C -50.72354419871597 129.87097000000117 -53.38884823857789 127.20566819871482 -53.388851 123.91785 C -53.38885232608318 122.33898221761903 -52.761650471196944 120.82478029537526 -51.64522282451911 119.70835171101541 C -50.52879517784127 118.59192312665556 -49.01459378238153 117.96471999999945 -47.435726 117.96472 C -45.85685821761847 117.96471999999945 -44.34265682215874 118.59192312665556 -43.226229175480896 119.70835171101541 C -42.10980152880306 120.82478029537526 -41.48259967391682 122.33898221761903 -41.482601 123.91785 z" transform="matrix(3.78 0 0 3.78 179.3232 -468.4176)"/>
  </g>
</svg>