<?xml version="1.0" encoding="UTF-8" standalone="no"?>
<svg
   xmlns:dc="http://purl.org/dc/elements/1.1/"
   xmlns:cc="http://creativecommons.org/ns#"
   xmlns:rdf="http://www.w3.org/1999/02/22-rdf-syntax-ns#"
   xmlns:svg="http://www.w3.org/2000/svg"
   xmlns="http://www.w3.org/2000/svg"
   width="96"
   height="76"
   viewBox="0 0 25.4 20.108333"
   version="1.1"
   id="svg1075">
  <defs
     id="defs1069" />
  <metadata
     id="metadata1072">
    <rdf:RDF>
      <cc:Work
         rdf:about="">
        <dc:format>image/svg+xml</dc:format>
        <dc:type
           rdf:resource="http://purl.org/dc/dcmitype/StillImage" />
        <dc:title></dc:title>
      </cc:Work>
    </rdf:RDF>
  </metadata>
  <path
     fill-rule="evenodd"
     clip-rule="evenodd"
     d="m 21.589989,1.5833333e-6 c 2.10428,0 3.81001,1.6880400166667 3.81001,3.7703100166667 V 16.338022 c 0,2.08235 -1.70573,3.77031 -3.81001,3.77031 H 3.8100084 C 1.7057864,20.108332 3.9473684e-7,18.420372 3.9473684e-7,16.338022 V 3.7703116 C 3.9473684e-7,1.6880416 1.7057864,1.5833333e-6 3.8100084,1.5833333e-6 Z M 22.859999,7.0690716 h -8.889891 c -0.701298,0 -1.467873,-0.52749 -1.711963,-1.17818 l -1.267216,-3.37734 H 3.8100084 c -0.701414,0 -1.270009,0.56267 -1.270009,1.25676 V 16.338022 c 0,0.69411 0.568595,1.25677 1.270009,1.25677 H 21.589989 c 0.70142,0 1.27001,-0.56266 1.27001,-1.25677 z"
     fill="currentColor"
     id="path963"
     style="fill:#fbfbfe;fill-opacity:1;stroke:none;stroke-width:1.26338541;stroke-miterlimit:4;stroke-dasharray:none" />
</svg>
