<?xml version="1.0" encoding="UTF-8" standalone="no"?>
<svg
   xmlns:dc="http://purl.org/dc/elements/1.1/"
   xmlns:cc="http://creativecommons.org/ns#"
   xmlns:rdf="http://www.w3.org/1999/02/22-rdf-syntax-ns#"
   xmlns:svg="http://www.w3.org/2000/svg"
   xmlns="http://www.w3.org/2000/svg"
   width="15.875mm"
   height="15.875mm"
   viewBox="0 0 15.875 15.875"
   version="1.1"
   id="svg1831">
  <defs
     id="defs1825" />
  <metadata
     id="metadata1828">
    <rdf:RDF>
      <cc:Work
         rdf:about="">
        <dc:format>image/svg+xml</dc:format>
        <dc:type
           rdf:resource="http://purl.org/dc/dcmitype/StillImage" />
        <dc:title></dc:title>
      </cc:Work>
    </rdf:RDF>
  </metadata>
  <g
     id="layer1"
     transform="translate(15.497024,-144.76488)">
    <path
       id="circle1739"
       style="fill:#000000;fill-opacity:1;stroke:none;stroke-width:0.520954;stroke-linecap:round;stroke-linejoin:round;stroke-miterlimit:4;stroke-dasharray:none;stroke-opacity:1;paint-order:markers fill stroke"
       d="m 0.37797642,152.70238 a 7.9375,7.9375 0 0 1 -7.93750002,7.9375 7.9375,7.9375 0 0 1 -7.9375004,-7.9375 7.9375,7.9375 0 0 1 7.9375004,-7.9375 7.9375,7.9375 0 0 1 7.93750002,7.9375 z" />
    <path
       id="circle1741"
       style="fill:#ffffff;fill-opacity:1;stroke:none;stroke-width:0.494906;stroke-linecap:round;stroke-linejoin:round;stroke-miterlimit:4;stroke-dasharray:none;stroke-opacity:1;paint-order:markers fill stroke"
       d="m -0.01889849,152.70238 a 7.5406251,7.5406251 0 0 1 -7.54062511,7.54062 7.5406251,7.5406251 0 0 1 -7.5406254,-7.54062 7.5406251,7.5406251 0 0 1 7.5406254,-7.54063 7.5406251,7.5406251 0 0 1 7.54062511,7.54063 z" />
    <path
       id="circle1743"
       style="fill:#ffcc00;fill-opacity:1;stroke:none;stroke-width:0.390715;stroke-linecap:round;stroke-linejoin:round;stroke-miterlimit:4;stroke-dasharray:none;stroke-opacity:1;paint-order:markers fill stroke"
       d="m -1.6063986,152.70238 a 5.953125,5.953125 0 0 1 -5.953125,5.95312 5.953125,5.953125 0 0 1 -5.9531254,-5.95312 5.953125,5.953125 0 0 1 5.9531254,-5.95313 5.953125,5.953125 0 0 1 5.953125,5.95313 z" />
  </g>
</svg>
