<?xml version="1.0" encoding="UTF-8" standalone="no"?>
<svg
   xmlns:dc="http://purl.org/dc/elements/1.1/"
   xmlns:cc="http://creativecommons.org/ns#"
   xmlns:rdf="http://www.w3.org/1999/02/22-rdf-syntax-ns#"
   xmlns:svg="http://www.w3.org/2000/svg"
   xmlns="http://www.w3.org/2000/svg"
   width="15.875mm"
   height="15.875mm"
   viewBox="0 0 15.875 15.875"
   version="1.1"
   id="svg1831">
  <defs
     id="defs1825" />
  <metadata
     id="metadata1828">
    <rdf:RDF>
      <cc:Work
         rdf:about="">
        <dc:format>image/svg+xml</dc:format>
        <dc:type
           rdf:resource="http://purl.org/dc/dcmitype/StillImage" />
        <dc:title></dc:title>
      </cc:Work>
    </rdf:RDF>
  </metadata>
  <g
     id="layer1"
     transform="translate(55.373228,-115.98036)">
    <path
       id="path1685"
       style="fill:#000000;fill-opacity:1;stroke:none;stroke-width:0.520954;stroke-linecap:round;stroke-linejoin:round;stroke-miterlimit:4;stroke-dasharray:none;stroke-opacity:1;paint-order:markers fill stroke"
       d="m -39.498226,123.91785 a 7.9375,7.9375 0 0 1 -7.9375,7.9375 7.9375,7.9375 0 0 1 -7.9375,-7.9375 7.9375,7.9375 0 0 1 7.9375,-7.9375 7.9375,7.9375 0 0 1 7.9375,7.9375 z" />
    <path
       id="circle1687"
       style="fill:#ffffff;fill-opacity:1;stroke:none;stroke-width:0.494906;stroke-linecap:round;stroke-linejoin:round;stroke-miterlimit:4;stroke-dasharray:none;stroke-opacity:1;paint-order:markers fill stroke"
       d="m -39.895101,123.91785 a 7.5406251,7.5406251 0 0 1 -7.540625,7.54062 7.5406251,7.5406251 0 0 1 -7.540625,-7.54062 7.5406251,7.5406251 0 0 1 7.540625,-7.54063 7.5406251,7.5406251 0 0 1 7.540625,7.54063 z" />
    <path
       id="circle1689"
       style="fill:#37c871;fill-opacity:1;stroke:none;stroke-width:0.390715;stroke-linecap:round;stroke-linejoin:round;stroke-miterlimit:4;stroke-dasharray:none;stroke-opacity:1;paint-order:markers fill stroke"
       d="m -41.482601,123.91785 a 5.953125,5.953125 0 0 1 -5.953125,5.95312 5.953125,5.953125 0 0 1 -5.953125,-5.95312 5.953125,5.953125 0 0 1 5.953125,-5.95313 5.953125,5.953125 0 0 1 5.953125,5.95313 z" />
  </g>
</svg>
