<?xml version="1.0" encoding="UTF-8" standalone="no"?>
<svg
   xmlns:dc="http://purl.org/dc/elements/1.1/"
   xmlns:cc="http://creativecommons.org/ns#"
   xmlns:rdf="http://www.w3.org/1999/02/22-rdf-syntax-ns#"
   xmlns:svg="http://www.w3.org/2000/svg"
   xmlns="http://www.w3.org/2000/svg"
   width="127.99999"
   height="127.99999"
   viewBox="0 0 33.866664 33.866666"
   version="1.1"
   id="svg2170">
  <defs
     id="defs2164" />
  <metadata
     id="metadata2167">
    <rdf:RDF>
      <cc:Work
         rdf:about="">
        <dc:format>image/svg+xml</dc:format>
        <dc:type
           rdf:resource="http://purl.org/dc/dcmitype/StillImage" />
        <dc:title></dc:title>
      </cc:Work>
    </rdf:RDF>
  </metadata>
  <g
     id="layer1"
     transform="translate(-82.899635,-105.53095)">
    <path
       d="m 86.546805,132.54413 h 26.532215 v -15.86177 h -8.76231 l -2.74033,-4.25784 H 86.546805 Z m 0,3.64718 c -0.98861,0 -1.84362,-0.3607 -2.56503,-1.08213 -0.72143,-0.72142 -1.08215,-1.57643 -1.08215,-2.56505 v -20.1196 c 0,-1.01534 0.36072,-1.88371 1.08215,-2.60514 0.72141,-0.72141 1.57642,-1.08213 2.56503,-1.08213 h 26.532215 c 1.01534,0 1.88373,0.36071 2.60516,1.08213 0.72142,0.72142 1.08213,1.5898 1.08213,2.60514 v 20.1196 c 0,0.98862 -0.36071,1.84363 -1.08213,2.56505 -0.72143,0.72142 -1.58982,1.08213 -2.60516,1.08213 z m 0,-3.64718 v -20.1196 z"
       id="path2144"
       style="fill:#5b5b66;fill-opacity:1;stroke-width:0.801577" />
  </g>
</svg>
