<?xml version="1.0" encoding="UTF-8" standalone="no"?>
<svg
   xmlns:dc="http://purl.org/dc/elements/1.1/"
   xmlns:cc="http://creativecommons.org/ns#"
   xmlns:rdf="http://www.w3.org/1999/02/22-rdf-syntax-ns#"
   xmlns:svg="http://www.w3.org/2000/svg"
   xmlns="http://www.w3.org/2000/svg"
   width="16.933332mm"
   height="16.933334mm"
   viewBox="0 0 16.933332 16.933334"
   version="1.1"
   id="svg2240">
  <defs
     id="defs2234" />
  <metadata
     id="metadata2237">
    <rdf:RDF>
      <cc:Work
         rdf:about="">
        <dc:format>image/svg+xml</dc:format>
        <dc:type
           rdf:resource="http://purl.org/dc/dcmitype/StillImage" />
        <dc:title></dc:title>
      </cc:Work>
    </rdf:RDF>
  </metadata>
  <g
     id="layer1"
     transform="translate(-95.098808,-83.003571)">
    <g
       id="g2275"
       transform="translate(-0.08342178)">
      <path
         d="m 103.63925,99.936904 -5.948298,-4.404955 q -0.32833,-0.228828 -0.49248,-0.619744 -0.16416,-0.390916 -0.16416,-0.829505 v -9.343844 q 0,-0.667417 0.5311,-1.20135 0.53109,-0.533935 1.22636,-0.533935 h 9.694958 q 0.69525,0 1.23601,0.533935 0.54074,0.533933 0.54074,1.20135 V 94.0827 q 0,0.438589 -0.16415,0.829505 -0.16414,0.390916 -0.51179,0.619744 z m -0.81115,-6.483482 4.46123,-4.404956 -0.94632,-0.896246 -3.53421,3.48964 -1.91195,-1.887838 -0.927008,0.915315 z"
         id="path2148"
         style="fill:#3771c8;fill-opacity:1;stroke-width:0.383809" />
      <path
         id="path2268"
         style="fill:#ffffff;fill-opacity:1;stroke-width:0.38381"
         d="m 106.34295,88.152151 -3.53415,3.489709 -1.91203,-1.88774 -0.92707,0.91519 2.85822,2.784326 4.46123,-4.404899 z" />
    </g>
  </g>
</svg>
