<?xml version="1.0" encoding="UTF-8" standalone="no"?>
<svg
   xmlns:dc="http://purl.org/dc/elements/1.1/"
   xmlns:cc="http://creativecommons.org/ns#"
   xmlns:rdf="http://www.w3.org/1999/02/22-rdf-syntax-ns#"
   xmlns:svg="http://www.w3.org/2000/svg"
   xmlns="http://www.w3.org/2000/svg"
   xmlns:sodipodi="http://sodipodi.sourceforge.net/DTD/sodipodi-0.dtd"
   xmlns:inkscape="http://www.inkscape.org/namespaces/inkscape"
   width="210mm"
   height="297mm"
   viewBox="0 0 210 297"
   version="1.1"
   id="svg8"
   inkscape:version="1.0.2-2 (e86c870879, 2021-01-15)"
   sodipodi:docname="icons-v3.svg">
  <defs
     id="defs2" />
  <sodipodi:namedview
     id="base"
     pagecolor="#ffffff"
     bordercolor="#666666"
     borderopacity="1.0"
     inkscape:pageopacity="0.0"
     inkscape:pageshadow="2"
     inkscape:zoom="1.4"
     inkscape:cx="370.61088"
     inkscape:cy="250.02077"
     inkscape:document-units="mm"
     inkscape:current-layer="layer1"
     inkscape:document-rotation="0"
     showgrid="false"
     inkscape:snap-global="false"
     inkscape:snap-bbox="false"
     inkscape:bbox-nodes="false"
     showguides="true"
     inkscape:guide-bbox="true"
     inkscape:window-width="1600"
     inkscape:window-height="837"
     inkscape:window-x="-8"
     inkscape:window-y="-8"
     inkscape:window-maximized="1" />
  <metadata
     id="metadata5">
    <rdf:RDF>
      <cc:Work
         rdf:about="">
        <dc:format>image/svg+xml</dc:format>
        <dc:type
           rdf:resource="http://purl.org/dc/dcmitype/StillImage" />
        <dc:title></dc:title>
      </cc:Work>
    </rdf:RDF>
  </metadata>
  <g
     inkscape:label="Layer 1"
     inkscape:groupmode="layer"
     id="layer1">
    <rect
       style="fill:#2b2a33;fill-opacity:0.964706;stroke:#000000;stroke-width:1.29168;stroke-linecap:round;stroke-linejoin:round;stroke-miterlimit:4;stroke-dasharray:none;stroke-opacity:0.964706;paint-order:markers fill stroke"
       id="rect4135"
       width="86.632309"
       height="42.924644"
       x="21.596088"
       y="11.757514" />
    <rect
       style="fill:#f9f9fb;fill-opacity:0.964706;stroke:#000000;stroke-width:1.29168;stroke-linecap:round;stroke-linejoin:round;stroke-miterlimit:4;stroke-dasharray:none;stroke-opacity:0.964706;paint-order:markers fill stroke"
       id="rect4137"
       width="86.632309"
       height="42.924644"
       x="21.415226"
       y="58.44746" />
    <text
       xml:space="preserve"
       style="font-style:normal;font-weight:normal;font-size:10.5833px;line-height:0.8;font-family:sans-serif;letter-spacing:0px;word-spacing:0px;fill:#000000;fill-opacity:1;stroke:none;stroke-width:0.264583"
       x="14.477342"
       y="23.981335"
       id="text4141"><tspan
         sodipodi:role="line"
         x="14.477342"
         y="23.981335"
         style="text-align:center;text-anchor:middle;stroke-width:0.264583"
         id="tspan2281">D</tspan><tspan
         sodipodi:role="line"
         x="14.477342"
         y="32.447971"
         style="text-align:center;text-anchor:middle;stroke-width:0.264583"
         id="tspan2289">A</tspan><tspan
         sodipodi:role="line"
         x="14.477342"
         y="40.914616"
         style="text-align:center;text-anchor:middle;stroke-width:0.264583"
         id="tspan2291">R</tspan><tspan
         sodipodi:role="line"
         x="14.477342"
         y="49.381252"
         style="text-align:center;text-anchor:middle;stroke-width:0.264583"
         id="tspan2293">K</tspan></text>
    <text
       xml:space="preserve"
       style="font-style:normal;font-weight:normal;font-size:10.5833px;line-height:0.8;font-family:sans-serif;letter-spacing:0px;word-spacing:0px;fill:#000000;fill-opacity:1;stroke:none;stroke-width:0.264583"
       x="13.697083"
       y="67.019806"
       id="text4145"><tspan
         sodipodi:role="line"
         x="13.697083"
         y="67.019806"
         style="text-align:center;text-anchor:middle;stroke-width:0.264583"
         id="tspan2295">L</tspan><tspan
         sodipodi:role="line"
         x="13.697083"
         y="75.486443"
         style="text-align:center;text-anchor:middle;stroke-width:0.264583"
         id="tspan2299">I</tspan><tspan
         sodipodi:role="line"
         x="13.697083"
         y="83.953087"
         style="text-align:center;text-anchor:middle;stroke-width:0.264583"
         id="tspan2301">G</tspan><tspan
         sodipodi:role="line"
         x="13.697083"
         y="92.419731"
         style="text-align:center;text-anchor:middle;stroke-width:0.264583"
         id="tspan2303">T</tspan><tspan
         sodipodi:role="line"
         x="13.697083"
         y="100.88636"
         style="text-align:center;text-anchor:middle;stroke-width:0.264583"
         id="tspan2307">H</tspan></text>
    <g
       style="fill:#fbfbfe;fill-opacity:1"
       id="g4191"
       transform="matrix(1.2047032,0,0,1.2047032,30.582263,18.402646)">
      <path
         fill-rule="evenodd"
         clip-rule="evenodd"
         d="m 18.9999,4 c 1.6569,0 3,1.34315 3,3 v 10 c 0,1.6569 -1.3431,3 -3,3 H 4.99994 c -1.65686,0 -3,-1.3431 -3,-3 V 7 c 0,-1.65685 1.34314,-3 3,-3 z m 1,5.62479 H 13 c -0.5522,0 -1.1558,-0.41972 -1.348,-0.93747 L 10.6542,6 H 4.99994 c -0.55229,0 -1,0.44772 -1,1 v 10 c 0,0.5523 0.44771,1 1,1 H 18.9999 c 0.5523,0 1,-0.4477 1,-1 z"
         fill="currentColor"
         id="path4189"
         style="fill:#fbfbfe;fill-opacity:1" />
    </g>
    <path
       fill-rule="evenodd"
       clip-rule="evenodd"
       d="m 51.60062,69.993633 c 1.996073,0 3.61411,1.6181 3.61411,3.61411 v 12.04703 c 0,1.99608 -1.618037,3.61411 -3.61411,3.61411 H 34.734824 c -1.996025,0 -3.61411,-1.61803 -3.61411,-3.61411 v -12.04703 c 0,-1.99601 1.618085,-3.61411 3.61411,-3.61411 z m 1.204704,6.77621 h -8.432802 c -0.665238,0 -1.392396,-0.50564 -1.62394,-1.12938 l -1.202053,-3.23742 h -6.811705 c -0.665346,0 -1.204703,0.53937 -1.204703,1.2047 v 12.04703 c 0,0.66536 0.539357,1.20471 1.204703,1.20471 H 51.60062 c 0.665358,0 1.204704,-0.53935 1.204704,-1.20471 z"
       fill="currentColor"
       id="path4460"
       style="fill:#5b5b66;fill-opacity:1;stroke-width:1.2047" />
    <rect
       style="opacity:0.1;fill:#b3b3b3;stroke:none;stroke-width:0.641785;stroke-linecap:square;paint-order:markers fill stroke"
       id="rect2128"
       width="33.866665"
       height="33.866665"
       x="68.035728"
       y="15.730304" />
    <rect
       style="opacity:0.1;fill:#666666;fill-opacity:1;stroke:none;stroke-width:0.602028;stroke-linecap:square;paint-order:markers fill stroke"
       id="rect2130"
       width="16.933332"
       height="16.933332"
       x="68.035728"
       y="15.730304" />
    <path
       d="M 71.588398,42.743478 H 98.120607 V 26.881704 h -8.76231 l -2.74033,-4.257839 H 71.588398 Z m 0,3.64718 c -0.98861,0 -1.84362,-0.360711 -2.56503,-1.082132 -0.72143,-0.721419 -1.08215,-1.576435 -1.08215,-2.565048 V 22.623865 c 0,-1.015332 0.36072,-1.883708 1.08215,-2.605127 0.72141,-0.721421 1.57642,-1.082132 2.56503,-1.082132 h 26.532209 c 1.01534,0 1.883723,0.360711 2.605153,1.082132 0.72142,0.721419 1.08213,1.589795 1.08213,2.605127 v 20.119613 c 0,0.988613 -0.36071,1.843629 -1.08213,2.565048 -0.72143,0.721421 -1.589813,1.082132 -2.605153,1.082132 z m 0,-3.64718 V 22.623865 Z"
       id="path2132"
       style="fill:#fbfbfe;fill-opacity:1;stroke-width:0.801577"
       sodipodi:nodetypes="cccccccsssssssssssssccc" />
    <g
       id="g2138"
       transform="translate(-31.372024,-28.348214)">
      <path
         d="m 107.86488,61.011847 -5.87327,-4.404955 c -0.21613,-0.152552 -0.37822,-0.359133 -0.48627,-0.619744 -0.10806,-0.260611 -0.16209,-0.537112 -0.16209,-0.829505 v -9.343844 c 0,-0.444945 0.1748,-0.845395 0.5244,-1.20135 0.34959,-0.355957 0.75322,-0.533935 1.21089,-0.533935 h 9.57267 c 0.45765,0 0.86446,0.177978 1.22042,0.533935 0.35595,0.355955 0.53392,0.756405 0.53392,1.20135 v 9.343844 c 0,0.292393 -0.054,0.568894 -0.16208,0.829505 -0.10805,0.260611 -0.27649,0.467192 -0.50533,0.619744 z"
         id="path2134"
         style="fill:#ffffff;fill-opacity:1;stroke-width:0.381381"
         sodipodi:nodetypes="ccsssssssssscc" />
      <path
         d="m 107.94819,61.011847 -5.9483,-4.404955 q -0.32833,-0.228828 -0.49248,-0.619744 -0.16416,-0.390916 -0.16416,-0.829505 v -9.343844 q 0,-0.667417 0.5311,-1.20135 0.53109,-0.533935 1.22636,-0.533935 h 9.69496 q 0.69525,0 1.23601,0.533935 0.54074,0.533933 0.54074,1.20135 v 9.343844 q 0,0.438589 -0.16415,0.829505 -0.16414,0.390916 -0.51179,0.619744 z m -0.81115,-6.483482 4.46123,-4.404956 -0.94632,-0.896246 -3.53421,3.48964 -1.91195,-1.887838 -0.92701,0.915315 z"
         id="path2136"
         style="fill:#3771c8;fill-opacity:1;stroke-width:0.383809" />
    </g>
    <rect
       style="opacity:0.1;fill:#b3b3b3;stroke:none;stroke-width:0.641785;stroke-linecap:square;paint-order:markers fill stroke"
       id="rect75"
       width="33.866665"
       height="33.866665"
       x="68.035721"
       y="62.599346" />
    <rect
       style="opacity:0.1;fill:#666666;fill-opacity:1;stroke:none;stroke-width:0.602028;stroke-linecap:square;paint-order:markers fill stroke"
       id="rect124"
       width="16.933332"
       height="16.933332"
       x="68.035721"
       y="62.599346" />
    <path
       d="m 71.588398,89.612523 h 26.532209 v -15.86177 h -8.76231 l -2.74033,-4.25784 H 71.588398 Z m 0,3.64718 c -0.98861,0 -1.84362,-0.36071 -2.56503,-1.08213 -0.72143,-0.72142 -1.08215,-1.57643 -1.08215,-2.56505 v -20.11961 c 0,-1.01533 0.36072,-1.88371 1.08215,-2.60513 0.72141,-0.72142 1.57642,-1.08213 2.56503,-1.08213 h 26.532209 c 1.01534,0 1.883723,0.36071 2.605153,1.08213 0.72142,0.72142 1.08213,1.5898 1.08213,2.60513 v 20.11961 c 0,0.98862 -0.36071,1.84363 -1.08213,2.56505 -0.72143,0.72142 -1.589813,1.08213 -2.605153,1.08213 z m 0,-3.64718 v -20.11961 z"
       id="path62"
       style="fill:#5b5b66;fill-opacity:1;stroke-width:0.801577"
       sodipodi:nodetypes="cccccccsssssssssssssccc" />
    <g
       id="g132"
       transform="translate(-31.372024,18.520834)">
      <path
         d="m 107.86488,61.011847 -5.87327,-4.404955 c -0.21613,-0.152552 -0.37822,-0.359133 -0.48627,-0.619744 -0.10806,-0.260611 -0.16209,-0.537112 -0.16209,-0.829505 v -9.343844 c 0,-0.444945 0.1748,-0.845395 0.5244,-1.20135 0.34959,-0.355957 0.75322,-0.533935 1.21089,-0.533935 h 9.57267 c 0.45765,0 0.86446,0.177978 1.22042,0.533935 0.35595,0.355955 0.53392,0.756405 0.53392,1.20135 v 9.343844 c 0,0.292393 -0.054,0.568894 -0.16208,0.829505 -0.10805,0.260611 -0.27649,0.467192 -0.50533,0.619744 z"
         id="path126"
         style="fill:#ffffff;fill-opacity:1;stroke-width:0.381381"
         sodipodi:nodetypes="ccsssssssssscc" />
      <path
         d="m 107.94819,61.011847 -5.9483,-4.404955 q -0.32833,-0.228828 -0.49248,-0.619744 -0.16416,-0.390916 -0.16416,-0.829505 v -9.343844 q 0,-0.667417 0.5311,-1.20135 0.53109,-0.533935 1.22636,-0.533935 h 9.69496 q 0.69525,0 1.23601,0.533935 0.54074,0.533933 0.54074,1.20135 v 9.343844 q 0,0.438589 -0.16415,0.829505 -0.16414,0.390916 -0.51179,0.619744 z m -0.81115,-6.483482 4.46123,-4.404956 -0.94632,-0.896246 -3.53421,3.48964 -1.91195,-1.887838 -0.92701,0.915315 z"
         id="path98"
         style="fill:#3771c8;fill-opacity:1;stroke-width:0.383809" />
    </g>
    <rect
       style="opacity:0.1;fill:#b3b3b3;stroke:none;stroke-width:0.641785;stroke-linecap:square;paint-order:markers fill stroke"
       id="rect2140"
       width="33.866665"
       height="33.866665"
       x="118.11757"
       y="62.221375" />
    <rect
       style="opacity:0.1;fill:#666666;fill-opacity:1;stroke:none;stroke-width:0.602028;stroke-linecap:square;paint-order:markers fill stroke"
       id="rect2142"
       width="16.933332"
       height="16.933332"
       x="118.11757"
       y="62.221375" />
    <path
       d="m 121.67024,89.234546 h 26.53221 v -15.86177 h -8.76231 l -2.74033,-4.25784 h -15.02957 z m 0,3.64718 c -0.98861,0 -1.84362,-0.36071 -2.56503,-1.08213 -0.72143,-0.72142 -1.08215,-1.57643 -1.08215,-2.56505 v -20.11961 c 0,-1.01533 0.36072,-1.88371 1.08215,-2.60513 0.72141,-0.72142 1.57642,-1.08213 2.56503,-1.08213 h 26.53221 c 1.01534,0 1.88373,0.36071 2.60516,1.08213 0.72142,0.72142 1.08213,1.5898 1.08213,2.60513 v 20.11961 c 0,0.98862 -0.36071,1.84363 -1.08213,2.56505 -0.72143,0.72142 -1.58982,1.08213 -2.60516,1.08213 z m 0,-3.64718 v -20.11961 z"
       id="path2144"
       style="fill:#5b5b66;fill-opacity:1;stroke-width:0.801577"
       sodipodi:nodetypes="cccccccsssssssssssssccc" />
    <g
       id="g2150"
       transform="translate(18.709821,18.142858)">
      <path
         d="m 107.86488,61.011847 -5.87327,-4.404955 c -0.21613,-0.152552 -0.37822,-0.359133 -0.48627,-0.619744 -0.10806,-0.260611 -0.16209,-0.537112 -0.16209,-0.829505 v -9.343844 c 0,-0.444945 0.1748,-0.845395 0.5244,-1.20135 0.34959,-0.355957 0.75322,-0.533935 1.21089,-0.533935 h 9.57267 c 0.45765,0 0.86446,0.177978 1.22042,0.533935 0.35595,0.355955 0.53392,0.756405 0.53392,1.20135 v 9.343844 c 0,0.292393 -0.054,0.568894 -0.16208,0.829505 -0.10805,0.260611 -0.27649,0.467192 -0.50533,0.619744 z"
         id="path2146"
         style="fill:#ffffff;fill-opacity:1;stroke-width:0.381381"
         sodipodi:nodetypes="ccsssssssssscc" />
      <path
         d="m 107.94819,61.011847 -5.9483,-4.404955 q -0.32833,-0.228828 -0.49248,-0.619744 -0.16416,-0.390916 -0.16416,-0.829505 v -9.343844 q 0,-0.667417 0.5311,-1.20135 0.53109,-0.533935 1.22636,-0.533935 h 9.69496 q 0.69525,0 1.23601,0.533935 0.54074,0.533933 0.54074,1.20135 v 9.343844 q 0,0.438589 -0.16415,0.829505 -0.16414,0.390916 -0.51179,0.619744 z m -0.81115,-6.483482 4.46123,-4.404956 -0.94632,-0.896246 -3.53421,3.48964 -1.91195,-1.887838 -0.92701,0.915315 z"
         id="path2148"
         style="fill:#3771c8;fill-opacity:1;stroke-width:0.383809" />
    </g>
  </g>
</svg>
