<?xml version="1.0" encoding="iso-8859-1"?>
<!-- Generator: Adobe Illustrator 19.0.0, SVG Export Plug-In . SVG Version: 6.00 Build 0)  -->
<svg version="1.1" id="Layer_1" xmlns="http://www.w3.org/2000/svg" xmlns:xlink="http://www.w3.org/1999/xlink" x="0px" y="0px"
	 viewBox="0 0 512.816 512.816" style="enable-background:new 0 0 512.816 512.816;" xml:space="preserve">
<g>
	<polygon style="fill:#FFCC67;" points="346.712,70.264 278.12,70.264 256.416,0 234.712,70.264 166.104,70.264 221.608,112.696 
		200.096,182.368 256.416,139.304 312.728,182.376 291.224,112.696 	"/>
	<polygon style="fill:#FFCC67;" points="181.032,201.304 112.432,201.304 90.728,131.032 69.016,201.304 0.408,201.304 
		55.92,243.728 34.408,313.4 90.728,270.336 147.04,313.4 125.528,243.728 	"/>
	<polygon style="fill:#FFCC67;" points="512.408,201.304 443.808,201.304 422.104,131.032 400.392,201.304 331.784,201.304 
		387.296,243.728 365.784,313.4 422.104,270.336 478.416,313.4 456.904,243.728 	"/>
	<polygon style="fill:#FFCC67;" points="448.264,400.712 379.656,400.712 357.96,330.432 336.248,400.712 267.64,400.712 
		323.144,443.136 301.64,512.816 357.96,469.752 414.272,512.816 392.76,443.136 	"/>
	<polygon style="fill:#FFCC67;" points="245.176,400.712 176.576,400.712 154.872,330.432 133.168,400.712 64.552,400.712 
		120.064,443.136 98.552,512.816 154.872,469.752 211.184,512.816 189.672,443.136 	"/>
</g>
<g>
</g>
<g>
</g>
<g>
</g>
<g>
</g>
<g>
</g>
<g>
</g>
<g>
</g>
<g>
</g>
<g>
</g>
<g>
</g>
<g>
</g>
<g>
</g>
<g>
</g>
<g>
</g>
<g>
</g>
</svg>
